<svg id="Layer_1" enable-background="new 0 0 512 512" fill="currentColor" height="512" viewBox="0 0 512 512" width="512" xmlns="http://www.w3.org/2000/svg"><g><path d="m437.701 0h-363.402c-8.284 0-15 6.716-15 15v482c0 8.284 6.716 15 15 15h363.402c8.284 0 15-6.716 15-15v-482c0-8.284-6.716-15-15-15zm-15 482h-333.402v-452h333.402z"/><path d="m292.961 337.462c-8.284 0-15 6.716-15 15s6.716 15 15 15h82.998c8.284 0 15-6.716 15-15s-6.716-15-15-15z"/><path d="m375.959 397.465h-141.496c-8.284 0-15 6.716-15 15s6.716 15 15 15h141.496c8.284 0 15-6.716 15-15s-6.716-15-15-15z"/><path d="m136.041 367.462h85.669c8.284 0 15-6.716 15-15s-6.716-15-15-15h-85.669c-8.284 0-15 6.716-15 15s6.716 15 15 15z"/><path d="m256 315.516c70.489 0 127.836-57.347 127.836-127.836s-57.347-127.836-127.836-127.836-127.836 57.347-127.836 127.836 57.347 127.836 127.836 127.836zm-57.616-48.817c5.716-26.677 29.659-46.609 57.616-46.609 28.261 0 51.96 19.614 57.636 46.594-16.177 11.834-36.103 18.832-57.636 18.832-21.524 0-41.443-6.993-57.616-18.817zm35.169-99.056c0-12.377 10.069-22.447 22.447-22.447s22.447 10.07 22.447 22.447-10.069 22.447-22.447 22.447-22.447-10.07-22.447-22.447zm22.447-77.799c53.947 0 97.836 43.889 97.836 97.836 0 20.266-6.195 39.112-16.789 54.745-4.928-10.916-12.048-20.826-21.083-29.079-5.746-5.248-12.098-9.651-18.87-13.184 7.099-8.944 11.353-20.24 11.353-32.52 0-28.919-23.527-52.447-52.447-52.447s-52.447 23.528-52.447 52.447c0 12.275 4.244 23.575 11.335 32.521-6.993 3.651-13.536 8.235-19.433 13.717-8.772 8.156-15.688 17.869-20.508 28.536-10.591-15.632-16.783-34.475-16.783-54.737 0-53.946 43.889-97.835 97.836-97.835z"/></g></svg>
